PathFileType	4	(X/Y/Z)	Patient4_TMGait_0pt3_01_left_24.trc.trc
DataRate	CameraRate	NumFrames	NumMarkers	Units	OrigDataRate	OrigDataStartFrame	OrigNumFrames
52.434456928839	52.434456928839	4	33	mm	52.434456928839	124	       141
Frame#	Time	Sacral			L.Shoulder			Chest			R.Shoulder			Neck			R.ASIS			L.ASIS			R.Thigh.Superior			R.Thigh.Lateral			R.Thigh.Inferior			R.Patella			L.Thigh.Superior			L.Thigh.Lateral			L.Thigh.Inferior			L.Patella			L.Shank.Superior			L.Shank.Lateral			L.Shank.Inferior			R.Shank.Superior			R.Shank.Lateral			R.Shank.Inferior			R.Heel			R.Midfoot.Superior			R.Midfoot.Lateral			R.Toe			L.Heel			L.Midfoot.Lateral			L.Midfoot.Superior			L.Toe			L.Elbow			L.Wrist			R.Elbow			R.Wrist			
		X1	Y1	Z1	X2	Y2	Z2	X3	Y3	Z3	X4	Y4	Z4	X5	Y5	Z5	X6	Y6	Z6	X7	Y7	Z7	X8	Y8	Z8	X9	Y9	Z9	X10	Y10	Z10	X11	Y11	Z11	X12	Y12	Z12	X13	Y13	Z13	X14	Y14	Z14	X15	Y15	Z15	X16	Y16	Z16	X17	Y17	Z17	X18	Y18	Z18	X19	Y19	Z19	X20	Y20	Z20	X21	Y21	Z21	X22	Y22	Z22	X23	Y23	Z23	X24	Y24	Z24	X25	Y25	Z25	X26	Y26	Z26	X27	Y27	Z27	X28	Y28	Z28	X29	Y29	Z29	X30	Y30	Z30	X31	Y31	Z31	X32	Y32	Z32	X33	Y33	Z33	

124	47.335785714286	705.554923643822	999.571129685992	598.611863940131	852.317871476697	1418.927364630741	372.911469594068	987.541453065921	1351.822467171266	509.260381628192	945.887360434952	1437.683755166271	691.687221633641	870.016551870391	1482.648852357102	526.842171204200	947.606199547520	929.174783694291	673.771839801236	890.046042488263	951.028750637982	405.910412126861	954.919115370437	718.807043012584	636.895960517371	863.959383799584	613.969565931215	700.279569645669	923.227388770153	557.453381513996	611.210741740693	910.115103678928	464.850628508681	614.877716336870	969.276913890729	762.616777670991	429.008655485510	909.655571060493	636.008855402100	356.637318019942	1014.252253031485	575.576752889351	414.314626823285	1036.306351457962	508.369317613548	410.580901954581	1015.801631529439	436.507004100282	396.962935230273	941.386921059111	313.482317581859	340.768868976842	1021.643087816408	206.593777874340	391.417593939664	860.207831610453	382.977727147537	619.565528386721	771.128455470215	293.452505883592	682.651560531527	785.947495798077	196.316475711961	612.395317035274	621.653636037937	47.264698604301	579.448834678597	794.355330029296	96.161191661587	618.211138920127	703.351857275404	38.018559459271	654.805982324045	911.684622424987	39.361880399996	649.039563666723	922.216329530416	37.578235622771	421.570684951365	997.163361517165	38.772011407896	342.171402969385	1075.727002058507	105.911558346661	367.944596681032	1205.517505235645	63.528061814067	340.853846589826	673.800789261945	1113.019407978416	312.424482511117	606.791015691937	863.050732386286	356.291310070807	1131.578151784735	1169.146322555819	825.991474012354	1381.203423439947	1203.983650066220	775.389099072739	
125	47.354857142857	705.297914870573	998.806800343900	595.539105925085	852.266076307012	1417.570127870837	368.677788102652	987.734607884867	1350.405648485014	504.871457488452	946.448063948362	1436.583546313818	687.198890358336	870.325105246489	1481.624930899483	522.487927353045	947.564779283957	928.235044776541	670.497000567886	889.318655827416	949.520856430199	402.704569718576	954.132191693975	717.734207456016	634.348435208941	862.664634420548	613.434808643502	698.125368973666	921.507872508996	556.378992992276	609.251278184470	907.714248442368	463.712074294982	613.237228793572	968.765184192404	761.201466564752	426.170357404459	908.072516269483	634.458765594752	354.972264846686	1013.158187052062	574.388775244390	411.882559368418	1034.203918580392	506.544623850962	408.637327381584	1013.726715694502	434.491898706016	395.269545469666	938.405278733219	311.724278707117	340.036610351990	1017.904460377924	204.670084589834	391.096507548646	857.141145300084	382.160502883503	618.265920027499	767.309937187618	293.648504852729	681.771146522283	781.371524300644	196.120142933926	611.977945193972	616.036497974963	47.788559862440	579.567265339964	788.901210249582	96.214594690623	618.128253920763	697.742826011981	38.277397334053	654.897241840789	906.066607117425	39.240997244702	649.092857434346	916.754720164815	37.427844326412	422.271375818354	991.409277625163	37.745391543078	342.526199535534	1070.953777570448	103.558111517950	368.203994004026	1200.163635377859	59.413412039537	340.636239658348	675.252294040974	1110.452948466827	309.480084135490	608.739951157773	860.313602234040	353.912093460522	1135.848036371511	1170.863924115345	819.947558904922	1384.557750225582	1210.688018833330	767.949162190478	
126	47.373928571429	705.213401985346	998.166796034234	592.233067046474	852.284873847154	1416.350213847323	364.284847736002	987.990104125255	1349.199820188819	500.353245471297	947.007083148509	1435.643882020407	682.599416402018	870.658277054111	1480.752834755837	517.971143318196	947.698705104531	927.432349442880	667.018676453353	888.829308834195	948.263533139839	399.290212158454	953.519665129761	716.767285173914	631.608617610385	861.553441638888	613.001457263132	695.791690632515	919.995849988848	555.391672285271	607.139744366143	905.509917826899	462.641724630365	611.471527076967	968.807007525614	760.359035913369	423.366651714371	907.526208025277	633.401496159486	353.118267446721	1013.024791623515	573.695893755485	409.370091236251	1033.090889489286	505.105139030904	406.589360108869	1012.472320968563	432.741354966755	393.527638407955	936.017941640487	310.454720389651	338.998329513759	1014.203892429727	202.969139768352	390.688955870637	854.239331375630	381.443903395436	616.880593169185	763.618710591291	294.001898353493	680.803853507286	776.898984275103	196.054708105180	611.551074894801	610.471266167633	48.535953662329	579.720012498275	783.533019134797	96.308925216310	618.061435505335	692.185998472631	38.652440450021	655.010126155149	900.486865222769	39.091721050333	649.159037156074	910.861909076056	37.447906738024	422.745355974816	985.270614109722	36.959073567288	342.700300309915	1065.740843572329	101.547409049114	368.343808720890	1194.435792957072	55.759235478429	340.343404280468	677.335515194146	1107.639913984616	305.950693323811	612.067356172302	857.121981073103	350.536704253538	1139.183954921041	1172.076220423113	814.010310321489	1387.199695940959	1215.582885253724	760.892396785724	
127	47.393000000000	705.309642282419	997.739299133712	588.660039181907	852.361330525906	1415.379332969334	359.770035833652	988.300696579456	1348.297671120063	495.726095242884	947.566378868297	1434.946314933320	677.917393472346	870.997336648078	1480.109961179014	513.338187399144	947.994679294153	926.835185163566	663.329390102586	888.620572798204	947.335048453248	395.645405221924	952.961257657507	715.951610248781	628.704904253612	860.458616162269	612.761074836674	693.317365757220	918.516596714750	554.550889810287	604.933619240057	903.315652436557	461.726991413268	609.644633338372	969.346970921625	760.075954607867	420.575320147279	907.896666013594	632.815381251239	351.047287053921	1013.678934526000	573.418479147955	406.797658166210	1032.823671289749	504.042362376115	404.492166647430	1011.920865238462	431.278424028483	391.790553199280	934.223383694720	309.642726272749	337.690125384157	1010.616313822497	201.530011740357	390.232565855864	851.360983759886	380.912780053315	615.464450754493	759.938396869635	294.561505835948	679.791553403279	772.464395027184	196.173920770788	611.144941986230	604.953498934805	49.531499747116	579.909414513731	778.246593487753	96.456277780458	618.034998666943	686.673247695953	39.155309074507	655.145459870162	894.935029675326	38.916539315625	649.235816918233	904.786112433062	37.576152217692	422.994940962442	979.011252868063	36.415441183077	342.717899150166	1060.284492450091	99.955448851660	368.398390939265	1188.564455718520	52.748327515805	340.033744147929	679.873194303971	1104.845904147413	301.821759692048	616.675226164472	853.734404580414	346.165203633111	1141.680204056136	1172.905610605491	808.246653387467	1389.271349760404	1218.788001003749	754.272916299160	
